

 
http://www.imdb.com/title/tt1905041/



Plot: Agent Luke Hobbs enlists Dominic Toretto and his team to bring down former Special Ops soldier Owen Shaw, leader of a unit specializing in vehicular warfare. 



Director:
 Justin Lin 

Writers:
 Chris Morgan (screenplay), Gary Scott Thompson (characters) 

Stars:
 Dwayne Johnson, Vin Diesel, Paul Walker

Genres:
  Action |  Crime |  Thriller 

Country:
 USA 

Language:
 English 


Source - Fast.And.Furious.6.2013.720p.CAM-TheCod3r (Many Thanks)

 NOTES - Enjoy. Ran a smoother over this to try and eliminate the blocking as best i could, changed frame rate to 25, resized to 720 x 352 also cropped where i could but theres still camera movement and some black bars in parts.

 General
 Complete name                            : Fast And Furious 6 2013 CAM XviD-SSDD.avi
 Format                                   : AVI
 Format/Info                              : Audio Video Interleave
 File size                                : 1.37 GiB
 Duration                                 : 2h 0mn
 Overall bit rate                         : 1 630 Kbps
 Writing library                          : VirtualDub build 32842/release

 Video
 ID                                       : 0
 Format                                   : MPEG-4 Visual
 Format profile                           : Advanced Simple@L5
 Format settings, BVOP                    : 2
 Format settings, QPel                    : No
 Format settings, GMC                     : No warppoints
 Format settings, Matrix                  : Default (H.263)
 Muxing mode                              : Packed bitstream
 Codec ID                                 : XVID
 Codec ID/Hint                            : XviD
 Duration                                 : 2h 0mn
 Bit rate                                 : 1 492 Kbps
 Width                                    : 720 pixels
 Height                                   : 352 pixels
 Display aspect ratio                     : 2.045
 Frame rate                               : 25.000 fps
 Color space                              : YUV
 Chroma subsampling                       : 4:2:0
 Bit depth                                : 8 bits
 Scan type                                : Progressive
 Compression mode                         : Lossy
 Bits/(Pixel*Frame)                       : 0.235
 Stream size                              : 1.26 GiB (92%)
 Writing library                          : XviD 64

 Audio
 ID                                       : 1
 Format                                   : MPEG Audio
 Format version                           : Version 1
 Format profile                           : Layer 3
 Mode                                     : Joint stereo
 Mode extension                           : MS Stereo
 Codec ID                                 : 55
 Codec ID/Hint                            : MP3
 Duration                                 : 2h 0mn
 Bit rate mode                            : Constant
 Bit rate                                 : 128 Kbps
 Channel(s)                               : 2 channels
 Sampling rate                            : 48.0 KHz
 Compression mode                         : Lossy
 Stream size                              : 111 MiB (8%)
 Alignment                                : Split accross interleaves
 Interleave, duration                     : 40 ms (1.00 video frame)
 Interleave, preload duration             : 500 ms




screens



    	http://addpix.net/viewer.php?file=91232959160281521187.jpg
    	http://addpix.net/viewer.php?file=08591754722490678601.jpg
    	http://addpix.net/viewer.php?file=56063204418536626990.jpg
    	http://addpix.net/viewer.php?file=23073191056440242954.jpg
    	http://addpix.net/viewer.php?file=52179729031027828382.jpg
    	http://addpix.net/viewer.php?file=19321352894248763753.jpg